Coordinates
version=1
nRows=22
nColumns=24
inDegrees=yes

Units are S.I. units (second, meters, Newtons, ...)
Angles are in degrees.

endheader
time	pelvis_tilt	pelvis_list	pelvis_rotation	pelvis_tx	pelvis_ty	pelvis_tz	hip_flexion_r	hip_adduction_r	hip_rotation_r	knee_angle_r	ankle_angle_r	subtalar_angle_r	mtp_angle_r	hip_flexion_l	hip_adduction_l	hip_rotation_l	knee_angle_l	ankle_angle_l	subtalar_angle_l	mtp_angle_l	lumbar_extension	lumbar_bending	lumbar_rotation
      1.12883333	     -1.92874237	     -1.55035968	     -3.18794376	     -0.03913773	      0.97459999	      0.32718962	    -18.36670572	      3.48077150	     -1.31793225	     -1.05116615	     15.76550669	     -3.88772896	      2.61005092	     24.02849577	     -0.42884007	     -3.95127659	      6.03527297	     -3.55794750	     -5.32816038	      2.68825580	    -11.43610531	      6.92544553	      8.34262128
      1.13300000	     -1.90772563	     -1.40476546	     -3.15256876	     -0.03316724	      0.97380966	      0.32679435	    -18.49707682	      3.27175781	     -1.55264332	     -1.58851959	     16.00386112	     -3.54661286	      2.68493819	     24.02167668	     -0.18698275	     -3.80703221	      5.86553552	     -3.73315316	     -5.70099856	      2.72968123	    -11.42126438	      6.73216691	      8.33403882
      1.13716667	     -1.88515652	     -1.23786894	     -3.11826410	     -0.02716283	      0.97306560	      0.32639256	    -18.60991744	      3.03725964	     -1.78152109	     -2.16545160	     16.23389933	     -3.21155577	      2.76740753	     24.01591869	      0.07242567	     -3.62754570	      5.62126849	     -3.98192611	     -6.15677442	      2.78384847	    -11.40880041	      6.51428839	      8.31537271
      1.14133333	     -1.87280764	     -1.05807478	     -3.07841077	     -0.02113214	      0.97235449	      0.32597406	    -18.68926164	      2.78917152	     -2.01721819	     -2.78861299	     16.44454683	     -2.87848405	      2.86187730	     24.02884046	      0.34314636	     -3.41017144	      5.29962242	     -4.29304812	     -6.68886547	      2.85383823	    -11.38502422	      6.28506893	      8.29100810
      1.14550000	     -1.85259406	     -0.85632495	     -3.03841257	     -0.01506784	      0.97169651	      0.32554704	    -18.76027115	      2.51618662	     -2.24611855	     -3.44883998	     16.64202517	     -2.57195081	      2.96551010	     24.03823308	      0.63455684	     -3.17350571	      4.91323401	     -4.67844056	     -7.29411775	      2.93391973	    -11.35772477	      6.02049029	      8.25463540
      1.14966667	     -1.84417921	     -0.64545691	     -2.99345700	     -0.00897605	      0.97107213	      0.32509955	    -18.79639230	      2.23344758	     -2.47261076	     -4.15610243	     16.80997203	     -2.28007144	      3.08262559	     24.06889694	      0.93487231	     -2.91382071	      4.46007547	     -5.12382687	     -7.95953581	      3.02440460	    -11.31637473	      5.74922190	      8.21308614
      1.15383333	     -1.83304397	     -0.42138656	     -2.94324836	     -0.00285879	      0.97049293	      0.32463605	    -18.81863154	      1.93622187	     -2.69728174	     -4.89841876	     16.94950625	     -2.00452254	      3.21640464	     24.10347760	      1.24893447	     -2.62786629	      3.95118174	     -5.63295836	     -8.68725634	      3.12564458	    -11.27777265	      5.46152698	      8.15939897
      1.15800000	     -1.82823826	     -0.18370145	     -2.88987579	      0.00328338	      0.96995256	      0.32415106	    -18.81370176	      1.62378900	     -2.91658989	     -5.68339331	     17.05907602	     -1.74334688	      3.37249128	     24.15137754	      1.57732286	     -2.33086394	      3.39293796	     -6.20247812	     -9.46604142	      3.23559070	    -11.22990917	      5.15613468	      8.10017638
      1.16216667	     -1.82826475	      0.06498761	     -2.83688306	      0.00944518	      0.96945308	      0.32366423	    -18.78601291	      1.29901023	     -3.12673458	     -6.50292340	     17.13090728	     -1.51999540	      3.54894326	     24.21697061	      1.91474656	     -2.03489294	      2.77747151	     -6.81654910	    -10.27306170	      3.34746140	    -11.17543988	      4.84694297	      8.03464517
      1.16633333	     -1.83442212	      0.32078000	     -2.78098220	      0.01562242	      0.96899081	      0.32315328	    -18.72836897	      0.96558866	     -3.33279649	     -7.36902232	     17.15965312	     -1.31903783	      3.75914323	     24.29537360	      2.26059313	     -1.72701295	      2.12288097	     -7.45913380	    -11.10462512	      3.46352880	    -11.11460107	      4.52258904	      7.96240769
      1.17050000	     -1.84361888	      0.58260232	     -2.71599536	      0.02181117	      0.96857378	      0.32261633	    -18.64976998	      0.62759193	     -3.52612232	     -8.27093927	     17.14651441	     -1.14750365	      4.00178702	     24.38884167	      2.61641433	     -1.42734960	      1.42615310	     -8.14056861	    -11.95619252	      3.57477701	    -11.04713107	      4.18801261	      7.87922071
      1.17466667	     -1.86109858	      0.85556072	     -2.65413105	      0.02801684	      0.96819585	      0.32208238	    -18.54453857	      0.27777036	     -3.69747317	     -9.20552660	     17.08467464	     -1.02941482	      4.26018638	     24.50208287	      2.98041102	     -1.15726590	      0.68712464	     -8.82802478	    -12.77949361	      3.66959632	    -10.96743825	      3.84535688	      7.79426789
      1.17883333	     -1.88167377	      1.13066973	     -2.58614821	      0.03422309	      0.96785800	      0.32151483	    -18.41020625	     -0.07542668	     -3.86807194	    -10.19021539	     16.96749906	     -0.92798942	      4.57351478	     24.62237056	      3.35059846	     -0.86448617	     -0.07550259	     -9.50603440	    -13.62267059	      3.75907670	    -10.89082943	      3.50200150	      7.70242080
      1.18300000	     -1.90685190	      1.41000209	     -2.51875135	      0.04044184	      0.96756905	      0.32094916	    -18.25270067	     -0.43134256	     -4.01268141	    -11.20650070	     16.79551724	     -0.88404155	      4.90342313	     24.76000350	      3.72301004	     -0.62585570	     -0.87761512	    -10.16774268	    -14.40323103	      3.82533547	    -10.80360153	      3.14947838	      7.60625605
      1.18716667	     -1.93125884	      1.69110716	     -2.44650895	      0.04666265	      0.96732674	      0.32035368	    -18.07220217	     -0.79008341	     -4.15610371	    -12.26621914	     16.56105836	     -0.86425395	      5.29452147	     24.89869160	      4.10124682	     -0.37462601	     -1.69708590	    -10.79322766	    -15.18555137	      3.87715095	    -10.72077598	      2.79723806	      7.50580956
      1.19133333	     -1.89677053	      1.97729823	     -2.36091241	      0.05289308	      0.96720785	      0.31976091	    -17.95317994	     -1.14758696	     -4.29088636	    -13.31012298	     16.15067119	     -1.01989120	     11.18530780	     24.98153662	      4.49023083	     -0.15195382	     -2.54628093	    -11.31489348	    -15.88190852	      4.36898679	    -10.70974344	      2.42358127	      7.38347779
      1.19550000	     -1.96262415	      2.25873339	     -2.29915405	      0.05911448	      0.96702150	      0.31916370	    -17.67242431	     -1.50821752	     -4.38229282	    -14.46256867	     15.77281661	     -1.07605141	     11.25054622	     25.17948537	      4.86050575	      0.01310572	     -3.42167503	    -11.82607221	    -16.49348839	      4.33820827	    -10.57880057	      2.07620846	      7.29933964
      1.19966667	     -1.98306606	      2.54494206	     -2.22877410	      0.06532877	      0.96693583	      0.31854604	    -17.41985770	     -1.87300202	     -4.47766904	    -15.64870233	     15.34653685	     -1.16864049	     11.38034597	     25.32298075	      5.24375883	      0.19382195	     -4.29649045	    -12.26280903	    -17.11775537	      4.28793672	    -10.50294431	      1.71622040	      7.19254564
      1.20383333	     -1.99845801	      2.83144454	     -2.16170424	      0.07153770	      0.96690655	      0.31791905	    -17.14392085	     -2.24056490	     -4.56110662	    -16.87822685	     14.84656680	     -1.29960349	     11.56691091	     25.45984827	      5.62704844	      0.35131856	     -5.18176749	    -12.61163235	    -17.67983219	      4.22042613	    -10.43525500	      1.35621711	      7.08442907
      1.20800000	     -1.89810867	      3.16580515	     -2.10849902	      0.07779161	      0.96708790	      0.31726894	    -16.98021535	     -2.67578449	     -4.69212562	    -18.11182998	     14.23732206	     -1.36802866	     13.80515362	     25.42605140	      6.06926787	      0.54549567	     -5.97667460	    -13.00756962	    -18.43306562	      3.48811319	    -10.51397049	      0.93312387	      6.97022888
      1.21216667	     -1.99187003	      3.39750781	     -2.02695889	      0.08391393	      0.96703541	      0.31662678	    -16.54861836	     -2.97447772	     -4.71374006	    -19.44923197	     13.59520177	     -1.63104555	     14.00996169	     25.69178773	      6.39484153	      0.62718271	     -6.98645273	    -13.02788048	    -18.70366918	      3.42453164	    -10.35853508	      0.64565823	      6.87121903
      1.21633333	     -2.00959446	      3.67243623	     -1.97357907	      0.09006316	      0.96713956	      0.31597698	    -16.16625989	     -3.33963417	     -4.75835300	    -20.82996174	     12.88090740	     -1.83993941	     14.36006184	     25.82598380	      6.76512335	      0.72278855	     -7.89410985	    -13.10688332	    -19.11545611	      3.31215148	    -10.29717840	      0.30763122	      6.76914875
